<?xml version="1.0" standalone="no"?>
<!DOCTYPE svg PUBLIC "-//W3C//DTD SVG 20010904//EN"
 "http://www.w3.org/TR/2001/REC-SVG-20010904/DTD/svg10.dtd">
<svg version="1.0" xmlns="http://www.w3.org/2000/svg"
 width="500.000000pt" height="500.000000pt" viewBox="0 0 500.000000 500.000000"
 preserveAspectRatio="xMidYMid meet">
<metadata>
Created by potrace 1.14, written by Peter Selinger 2001-2017
</metadata>
<g transform="translate(0.000000,500.000000) scale(0.100000,-0.100000)"
fill="#000000" stroke="none">
<path d="M2357 4334 c-1 -1 -40 -5 -87 -8 -424 -29 -817 -340 -954 -756 -19
-58 -37 -123 -41 -145 -3 -23 -8 -52 -11 -65 -11 -56 -6 -259 10 -343 87 -457
416 -797 876 -902 106 -25 552 -31 660 -10 367 72 654 286 815 606 77 155 114
305 118 484 7 279 -112 581 -308 786 -184 192 -425 314 -685 345 -45 5 -388
12 -393 8z m193 -130 c397 -69 711 -368 809 -769 25 -103 30 -270 11 -372 -6
-35 -13 -75 -16 -90 -11 -58 -74 -207 -120 -284 -48 -80 -166 -212 -249 -277
-256 -202 -649 -258 -965 -137 -336 128 -589 443 -637 793 -10 71 -10 231 0
297 63 420 400 764 822 840 91 16 251 16 345 -1z m722 -227 l33 -27 -39 0
c-36 0 -86 29 -86 50 0 17 63 1 92 -23z m159 -168 c10 -13 19 -27 19 -31 0 -4
-23 -6 -51 -5 -44 1 -52 4 -64 28 -18 33 -14 36 36 34 31 -2 47 -8 60 -26z
m90 -158 c10 -2 29 -50 21 -55 -4 -2 -30 -4 -59 -3 -49 0 -53 2 -63 30 -5 17
-10 31 -10 32 0 1 101 -2 111 -4z m68 -187 c5 -5 12 -19 16 -31 6 -22 4 -23
-59 -23 -61 0 -66 2 -72 24 -3 14 -4 29 -1 33 7 11 105 9 116 -3z m33 -187
c15 -35 -1 -47 -63 -47 -45 0 -59 4 -60 15 -1 8 -2 21 -3 28 -3 19 9 23 66 22
41 0 55 -4 60 -18z m-6 -169 c3 -4 4 -18 0 -32 -5 -22 -10 -24 -66 -24 -59 1
-60 1 -60 29 0 15 6 29 13 32 18 6 105 2 113 -5z m-33 -190 c-3 -13 -9 -28
-14 -33 -7 -10 -105 -12 -115 -2 -3 2 -2 16 2 31 6 25 10 26 69 26 60 0 63 -1
58 -22z m-79 -188 c-18 -30 -43 -38 -100 -32 -31 4 -31 4 -17 33 14 27 18 29
74 29 l60 0 -17 -30z m-126 -180 c-19 -26 -28 -30 -71 -30 l-48 0 21 30 c19
26 27 30 71 30 l50 0 -23 -30z m-179 -157 c-7 -18 -66 -49 -82 -44 -16 6 -16
9 5 28 28 26 85 38 77 16z"/>
<path d="M2181 4108 c-313 -67 -571 -300 -675 -610 -31 -93 -35 -114 -43 -219
-5 -80 -4 -88 16 -108 38 -38 90 -7 92 53 0 17 2 40 3 51 19 148 46 232 108
338 133 230 383 383 652 400 56 4 73 9 87 26 18 22 15 56 -8 79 -17 17 -128
13 -232 -10z"/>
<path d="M2288 3787 l-3 -68 -50 -17 c-215 -73 -349 -274 -344 -516 3 -157 50
-274 148 -373 60 -60 157 -117 220 -129 31 -6 31 -7 31 -71 l0 -64 117 3 118
3 0 52 c0 28 2 54 5 56 3 3 19 7 35 10 87 14 225 96 254 150 15 28 22 20 -108
139 l-51 47 -35 -35 c-44 -44 -91 -64 -164 -69 -118 -9 -216 47 -267 152 -47
95 -37 234 23 325 49 73 126 110 230 109 73 0 134 -23 181 -70 33 -33 39 -33
72 -1 3 3 35 33 72 68 l68 63 -50 49 c-52 51 -139 98 -221 120 l-47 12 2 61 1
62 -117 0 -117 1 -3 -69z"/>
<path d="M3290 1735 c-18 -32 -33 -73 -34 -93 -1 -36 -2 -36 -45 -38 -47 -1
-61 -14 -58 -53 2 -24 7 -26 53 -31 l51 -5 -1 -200 c-1 -110 2 -224 6 -253 16
-131 100 -168 261 -116 49 16 55 27 35 69 -13 29 -15 30 -56 9 -42 -21 -89
-21 -110 0 -15 15 -17 47 -20 256 l-3 240 80 0 c45 0 81 3 82 8 0 4 2 14 3 22
2 8 0 24 -4 35 -7 18 -16 20 -81 20 l-74 -1 -5 91 c-5 83 -7 90 -26 93 -17 2
-29 -9 -54 -53z"/>
<path d="M939 1605 c-106 -21 -174 -90 -207 -211 -45 -161 -1 -341 103 -420
72 -55 231 -67 319 -25 48 24 116 91 116 116 0 9 -16 23 -36 32 l-36 18 -30
-38 c-42 -52 -81 -70 -151 -69 -119 1 -179 82 -182 247 -4 211 79 302 245 268
19 -3 50 -23 72 -45 21 -21 42 -38 47 -38 12 0 61 40 61 49 0 5 -16 25 -35 45
-65 70 -169 95 -286 71z"/>
<path d="M1660 1611 c-50 -10 -74 -25 -113 -73 l-35 -41 4 37 c6 53 -6 69 -55
71 -23 1 -45 -3 -49 -9 -9 -14 -9 -621 -1 -644 8 -21 74 -29 95 -11 10 8 13
60 13 205 0 201 8 254 43 308 33 50 66 69 127 74 61 5 71 13 71 55 0 20 -5 27
-19 27 -11 0 -25 2 -33 4 -7 2 -29 1 -48 -3z"/>
<path d="M2737 1605 c-26 -7 -65 -26 -87 -44 -40 -32 -47 -30 -41 16 3 24 -67
38 -96 20 -17 -11 -19 -902 -2 -913 11 -6 88 -8 95 -2 2 2 4 77 5 167 l1 163
26 -24 c46 -42 77 -56 134 -63 104 -12 177 22 233 110 46 71 65 150 61 254 -8
231 -145 363 -329 316z m124 -98 c19 -12 45 -44 59 -72 22 -45 25 -62 25 -165
0 -105 -2 -120 -28 -171 -20 -42 -37 -61 -62 -73 -94 -45 -204 -4 -232 88 -13
44 -16 238 -4 290 5 22 18 51 29 65 44 61 150 80 213 38z"/>
<path d="M3948 1615 c-2 -2 -22 -5 -45 -9 -152 -20 -247 -166 -239 -365 6
-136 64 -239 163 -288 91 -44 237 -38 321 13 76 46 130 159 136 280 10 210
-97 352 -276 367 -32 2 -59 3 -60 2z m114 -108 c77 -47 108 -123 103 -258 -3
-91 -13 -127 -51 -176 -34 -45 -78 -65 -139 -65 -123 0 -193 93 -193 256 0
129 34 207 106 246 52 27 127 26 174 -3z"/>
<path d="M1811 1597 c-6 -6 0 -34 15 -76 14 -36 67 -184 119 -328 l94 -263
-14 -41 c-38 -108 -82 -147 -148 -135 -32 6 -34 4 -44 -29 -10 -31 -9 -36 9
-46 26 -14 99 -14 142 1 45 15 77 53 120 143 45 95 278 746 274 766 -3 15 -26
18 -93 12 -12 -1 -97 -248 -184 -530 -5 -18 -27 40 -94 249 -47 150 -89 275
-91 278 -10 9 -95 9 -105 -1z"/>
</g>
</svg>
